<svg xmlns="http://www.w3.org/2000/svg" width="301.09714835030695" height="64.8" viewBox="0 0 301.09714835030695 64.8" class="css-1j8o68f"><defs id="SvgjsDefs4383"></defs><g id="SvgjsG4384" featurekey="symbolFeature-0" transform="matrix(0.7987270720626172,0,0,0.7987270720626172,-4.055936126778206,-7.098212907353867)" fill="#c05850"><path xmlns="http://www.w3.org/2000/svg" d="M36.15,23.604h2.271c-0.038,0.371-0.061,0.75-0.061,1.14c0,6.114,4.974,11.089,11.088,11.089s11.089-4.975,11.089-11.089  c0-0.388-0.023-0.768-0.061-1.14h1.964c0.553,0,1-0.447,1-1s-0.447-1-1-1h-0.6c-0.726-4.665-4.014-8.539-8.494-10.002  c0,0,0-1.396,0-1.398c0-0.431-0.356-0.88-0.781-0.976c-1.968-0.44-4.056-0.455-6.069-0.041c-0.189,0.039-0.382,0.166-0.512,0.305  c-0.084,0.09-0.153,0.195-0.201,0.309c-0.045,0.108-0.086,0.248-0.086,0.366v1.388c-4.566,1.424-7.912,5.317-8.642,10.049H36.15  c-0.553,0-1,0.447-1,1S35.598,23.604,36.15,23.604z M58.537,24.743c0,5.012-4.077,9.089-9.089,9.089  c-5.011,0-9.088-4.077-9.088-9.089c0-0.395,0.03-0.773,0.077-1.14H58.46C58.507,23.971,58.537,24.35,58.537,24.743z M59.807,21.604  h-6.46v-7.875C56.696,15.062,59.144,18.036,59.807,21.604z M51.347,11.049v10.554h-3.649V11.026  C48.918,10.856,50.15,10.864,51.347,11.049z M45.697,13.672v7.932h-6.61C39.757,17.973,42.265,14.973,45.697,13.672z"></path><path xmlns="http://www.w3.org/2000/svg" d="M94.078,71.325h-4.273c-0.553,0-1,0.447-1,1s0.447,1,1,1h4.273c0.553,0,1-0.447,1-1S94.631,71.325,94.078,71.325z"></path><path xmlns="http://www.w3.org/2000/svg" d="M85.715,71.325h-7.409c-0.553,0-1,0.447-1,1s0.447,1,1,1h7.409c0.553,0,1-0.447,1-1S86.268,71.325,85.715,71.325z"></path><path xmlns="http://www.w3.org/2000/svg" d="M19.715,72.325c0-0.553-0.447-1-1-1H6.078c-0.553,0-1,0.447-1,1s0.447,1,1,1h12.637  C19.268,73.325,19.715,72.878,19.715,72.325z"></path><path xmlns="http://www.w3.org/2000/svg" d="M48.579,42.622c0-0.613,0.497-1.11,1.11-1.11s1.11,0.497,1.11,1.11c0,0.613-0.497,1.11-1.11,1.11  S48.579,43.234,48.579,42.622z M49.689,45.446c-0.613,0-1.11,0.497-1.11,1.11c0,0.613,0.497,1.11,1.11,1.11s1.11-0.497,1.11-1.11  C50.798,45.943,50.302,45.446,49.689,45.446z M75.542,80.705h7.038l-0.45,3.448c-0.435,3.342-3.897,5.863-8.054,5.863H26.08  c-4.155,0-7.618-2.521-8.054-5.863l-0.45-3.448h7.953l1.925-10.254l-4.551-2.18c-0.053,0.009-0.1,0.031-0.155,0.031H7.82  c-0.553,0-1-0.447-1-1s0.447-1,1-1h10.974l-2.992-1.434c-0.892-0.427-1.536-1.222-1.769-2.183c-0.231-0.961-0.022-1.964,0.576-2.751  l14.647-19.282l12.543-4.839c0.001,0,0.001-0.001,0.002-0.001c0.001,0,0.001,0,0.002,0l0.49-0.189l0.439,0.318  c1.972,1.427,4.849,1.933,6.714,1.933c2.049,0,4.942-0.598,6.788-1.934l0.439-0.317l13.036,5.029l0.171,0.227l14.477,19.057  c0.599,0.786,0.808,1.789,0.575,2.75c-0.231,0.961-0.876,1.756-1.768,2.184l-2.99,1.433H90.7c0.553,0,1,0.447,1,1s-0.447,1-1,1  H76.002l-2.273,1.089L75.542,80.705z M43.99,38.852l5.756,15.605l5.32-15.645c-1.949,0.764-4.079,1.062-5.617,1.062  C47.892,39.874,45.868,39.583,43.99,38.852z M16.666,63.064l20.471,9.809c1.579,0.754,3.482,0.091,4.248-1.481  c0.382-0.783,0.429-1.666,0.132-2.484c-0.298-0.819-0.899-1.467-1.694-1.824l-13.991-6.278l9.041-11.197  c0.231-0.435,0.709-0.689,1.22-0.624c0.613,0.079,1.059,0.584,1.059,1.202v13.507l3.49,1.566c0.586,0.263,1.095,0.633,1.535,1.072  c0.049-0.007,0.093-0.029,0.144-0.029h14.508c0.433-0.424,0.93-0.786,1.502-1.043l3.491-1.567V50.186  c0-0.618,0.445-1.123,1.058-1.202c0.512-0.064,0.988,0.188,1.22,0.624l9.041,11.197l-13.991,6.278  c-0.795,0.356-1.396,1.004-1.693,1.823s-0.251,1.702,0.131,2.485c0.766,1.572,2.672,2.236,4.248,1.48l13.547-6.49  c0.002-0.001,0.003-0.002,0.005-0.002l6.919-3.314c0.347-0.167,0.597-0.477,0.688-0.85c0.09-0.374,0.009-0.765-0.224-1.071  l-14.306-18.83l-11.029-4.256l-7.612,22.384l-8.26-22.394l-11.053,4.265l-14.306,18.83c-0.232,0.307-0.313,0.697-0.224,1.071  C16.069,62.589,16.319,62.898,16.666,63.064z M69.953,60.043l-6.133-7.596v10.347L69.953,60.043z M29.017,60.043l6.134,2.752V52.446  L29.017,60.043z M27.563,80.705h45.953l-1.669-10.413l-9.151,4.384c-0.718,0.345-1.479,0.508-2.229,0.508  c-1.927,0-3.784-1.076-4.681-2.917c-0.608-1.25-0.685-2.654-0.232-3.965H43.416c0.454,1.311,0.376,2.715-0.232,3.965  c-0.896,1.841-2.754,2.917-4.681,2.917c-0.751,0-1.511-0.163-2.229-0.507l-6.953-3.332L27.563,80.705z M80.303,82.705H19.854  l0.155,1.188c0.302,2.313,2.969,4.123,6.071,4.123h47.996c3.104,0,5.77-1.811,6.071-4.122L80.303,82.705z"></path></g><g id="SvgjsG4385" featurekey="nameLeftFeature-0" transform="matrix(2.500000066227385,0,0,2.500000066227385,89.7500008940697,0.49999675485814166)" fill="#c05850"><path d="M14.38 12.559999999999999 c0.62 4.7 -2.44 7.64 -6.22 7.64 c-3.98 0 -7.26 -2.94 -7.26 -7.2 s3.36 -7.2 7.26 -7.2 c1.86 0 3.5 0.6 4.7 1.66 l-1.76 1.98 c-0.74 -0.52 -1.74 -0.9 -2.76 -0.9 c-2.54 0 -4.4 1.86 -4.4 4.46 s1.8 4.46 4.22 4.46 c1.84 0 3.12 -0.66 3.52 -2.42 l-3.3 0 l0 -2.48 l6 0 z M17.68 20.1 c-0.92 0 -1.64 -0.72 -1.64 -1.64 c0 -0.9 0.72 -1.62 1.64 -1.62 c0.9 0 1.62 0.72 1.62 1.62 c0 0.92 -0.72 1.64 -1.62 1.64 z M32.38 20 l-1.06 -2.5 l-6.76 0 l-1.06 2.5 l-3.1 0 l6.22 -14 l2.64 0 l6.24 14 l-3.12 0 z M25.58 15.120000000000001 l4.72 0 l-2.36 -5.54 z"></path></g><g id="SvgjsG4386" featurekey="nameRightFeature-0" transform="matrix(2.5714285714285716,0,0,2.5714285714285716,182.91428681782315,-0.42857020241873656)" fill="#f1ece1"><path d="M10.86 20 l-0.72 0 l-4.08 -5.38 c-0.2 0.02 -0.4 0.02 -0.6 0.02 l-3.68 0 l0 5.36 l-0.58 0 l0 -14 l4.26 0 c3.14 0 4.8 1.94 4.8 4.3 c0 2.08 -1.22 3.8 -3.56 4.24 z M1.78 14.04 l3.76 0 c2.52 0 4.14 -1.46 4.14 -3.74 c0 -2.32 -1.62 -3.72 -4.14 -3.72 l-3.76 0 l0 7.46 z M23.54 6 l0.62 0 l-6.28 14 l-0.3 0 l-6.26 -14 l0.62 0 l5.8 13 z M26.340000000000003 19.42 l7.28 0 l0 0.58 l-7.68 0 l-0.18 0 l0 -14 l0.58 0 l7.1 0 l0 0.58 l-7.1 0 l0 6.1 l5.66 0 l0 0.58 l-5.66 0 l0 6.16 z M45.96 6 l-5.14 7.12 l0 6.88 l-0.58 0 l0 -6.88 l-5.12 -7.12 l0.7 0 l4.72 6.56 l4.72 -6.56 l0.7 0 z"></path></g></svg>